<?xml version="1.0" encoding="UTF-8"?>
<svg id="b" data-name="Layer 2" xmlns="http://www.w3.org/2000/svg" width="40" height="40.152" viewBox="0 0 40 40.152">
  <g id="c" data-name="Icons">
    <g id="d" data-name="Dementia Icon">
      <g id="e" data-name="01 Brain">
        <path d="M14.17,32.61c-1.758,0-3.407-.651-4.67-1.817-.729.58-1.642.907-2.6.907-2.006,0-3.716-1.456-4.085-3.392-1.771-1.396-2.815-3.525-2.815-5.779,0-2.221,1.009-4.316,2.725-5.707.136-3.94,3.383-7.103,7.355-7.103.491,0,.975.049,1.446.146,1.387-1.798,3.552-2.866,5.823-2.866.255,0,.507.013.755.039.549.058.947.55.89,1.099-.058.549-.558.943-1.099.89-.18-.019-.361-.028-.546-.028-1.715,0-3.284.792-4.305,2.174,0,.006-.041.071-.109.15-.034.046-.064.099-.096.149-.242.39-.761.63-1.196.488-.497-.16-1.023-.241-1.563-.241-2.956,0-5.36,2.404-5.36,5.36,0,.001.013.107.013.109.045.369-.117.732-.423.943-1.446,1.001-2.31,2.646-2.31,4.397s.864,3.391,2.312,4.4c.099.068.182.152.248.247.106.145.174.32.188.51.083,1.129,1.028,2.014,2.153,2.014.727,0,1.377-.341,1.785-.936.18-.264.476-.425.795-.434.324-.014.623.134.819.386.935,1.204,2.346,1.894,3.87,1.894.402,0,.768-.042,1.118-.13.119-.024.183-.039.241-.06,1.065-.322,1.96-.954,2.571-1.797.007-.009.072-.094.079-.103.16-.258.456-.463.758-.499.309-.037.63.035.847.249.931.922,2.162,1.431,3.466,1.431,2.555,0,4.699-1.995,4.883-4.542.038-.547.521-.967,1.061-.926.14.009.278.018.417.018,2.505,0,4.599-1.874,4.87-4.359.06-.549.559-.945,1.103-.885.55.06.945.554.886,1.103-.369,3.373-3.12,5.947-6.475,6.131-.667,3.128-3.466,5.46-6.744,5.46-1.464,0-2.861-.455-4.031-1.297-.841.905-1.896,1.564-3.061,1.914-.109.042-.286.087-.448.117-.448.114-.973.176-1.54.176Z" fill="#000" stroke-width="0"/>
        <path d="M3.739,28.751s-.01,0-.016,0c-.545-.008-.983-.442-.984-.988,0-.112.029-2.764,3.112-3.799.524-.173,1.091.106,1.267.63.176.524-.106,1.091-.63,1.267-1.657.556-1.745,1.777-1.749,1.914-.018.54-.461.977-1,.977Z" fill="#000" stroke-width="0"/>
        <path d="M7.762,18.309c-.146,0-.294-.032-.435-.1-1.705-.824-3.02-.076-3.074-.045-.471.277-1.084.128-1.368-.342-.283-.469-.142-1.075.323-1.363.092-.058,2.265-1.369,4.99-.051.497.241.705.839.465,1.336-.173.357-.529.564-.901.564Z" fill="#000" stroke-width="0"/>
        <path d="M11.184,14.984c-.553,0-1-.448-1-1,0-1.428.429-2.801,1.238-3.971.314-.454.936-.568,1.392-.253.454.314.567.938.253,1.392-.577.833-.883,1.813-.883,2.833,0,.552-.447,1-1,1Z" fill="#000" stroke-width="0"/>
        <path d="M29.131,26.23c-.046,0-.092-.003-.139-.009-.541-.075-.921-.571-.854-1.112.006-.073.082-1.13-.944-2.529-.326-.445-.23-1.071.215-1.397.446-.328,1.07-.23,1.398.215,1.523,2.077,1.34,3.783,1.313,3.97-.069.5-.498.863-.989.863Z" fill="#000" stroke-width="0"/>
        <path d="M20.557,19.33c-.252,0-.504-.095-.698-.285-1.947-1.901-3.618-1.271-4.703-.633-.159.094-.275.15-.335.172-.521.19-1.093-.076-1.283-.595-.182-.495.052-1.04.523-1.254l.08-.046c3.181-1.871,5.624-.528,7.114.926.396.386.403,1.019.018,1.414-.196.201-.456.301-.716.301Z" fill="#000" stroke-width="0"/>
        <path d="M17.394,17.775c-.54,0-.984-.431-.999-.974-.003-.113-.005-1.13.789-1.946.603-.618,1.459-.931,2.547-.931.553,0,1,.448,1,1s-.447,1-1,1c-.363,0-.851.057-1.114.327-.204.209-.222.496-.222.498.014.552-.422,1.011-.975,1.025-.009,0-.018,0-.026,0Z" fill="#000" stroke-width="0"/>
        <path d="M18.253,31.086c-.225,0-.45-.075-.637-.229-.426-.352-.484-.982-.133-1.408.845-1.02.952-1.382.908-2.185-.029-.513-.165-1.077-.372-1.546-.224-.505.005-1.095.51-1.319.503-.225,1.095.005,1.318.51.306.69.497,1.486.54,2.242.086,1.533-.371,2.374-1.363,3.572-.198.239-.483.362-.771.362Z" fill="#000" stroke-width="0"/>
        <path d="M9.513,30.329c-.187,0-.376-.052-.544-.162-.461-.3-.594-.915-.296-1.377.06-.091,1.467-2.231,3.603-2.158.552.017.986.478.97,1.03s-.476,1.009-1.03.969c-.011,0-.022,0-.034,0-.825,0-1.599.896-1.829,1.247-.192.292-.513.452-.839.452Z" fill="#000" stroke-width="0"/>
        <path d="M10.012,23.16c-1.869,0-3.153-.892-3.235-.95-.45-.32-.555-.945-.234-1.395.319-.447.938-.554,1.389-.239.096.066,2.114,1.403,4.58-.24.46-.307,1.08-.183,1.387.277.307.459.183,1.081-.277,1.387-1.314.876-2.555,1.16-3.608,1.16Z" fill="#000" stroke-width="0"/>
        <path d="M11.184,35.726c-2.732,0-5.025-1.955-5.45-4.649l1.975-.312c.271,1.716,1.733,2.961,3.476,2.961,1.641,0,3.049-1.108,3.425-2.695l1.945.461c-.59,2.493-2.798,4.234-5.37,4.234Z" fill="#000" stroke-width="0"/>
        <path d="M13.49,40.152c-.276,0-.552-.114-.75-.338-.365-.414-.326-1.046.089-1.412,2.906-2.564,2.07-6.795,2.062-6.838-.112-.54.233-1.069.773-1.183.539-.112,1.068.229,1.184.769.046.219,1.1,5.404-2.696,8.752-.189.167-.426.25-.661.25Z" fill="#000" stroke-width="0"/>
        <path d="M18.824,38.968c-.195,0-.393-.057-.565-.176-.455-.313-.57-.936-.258-1.391,2.906-4.222.69-7.343.595-7.474-.324-.444-.232-1.069.209-1.396.44-.329,1.062-.241,1.393.198.132.176,3.198,4.362-.548,9.806-.194.282-.507.433-.825.433Z" fill="#000" stroke-width="0"/>
      </g>
      <path d="M30,20c-5.514,0-10-4.486-10-10S24.486,0,30,0s10,4.486,10,10-4.486,10-10,10ZM30,2c-4.411,0-8,3.589-8,8s3.589,8,8,8,8-3.589,8-8-3.589-8-8-8Z" fill="#000" stroke-width="0"/>
      <path d="M30,12c-.553,0-1-.448-1-1v-.54c0-1.102.564-2.089,1.473-2.578.325-.175.527-.513.527-.882,0-.551-.448-1-1-1s-1,.449-1,1-.447,1-1,1-1-.448-1-1c0-1.654,1.346-3,3-3s3,1.346,3,3c0,1.105-.605,2.118-1.58,2.643-.255.138-.42.458-.42.817v.54c0,.552-.447,1-1,1Z" fill="#000" stroke-width="0"/>
      <path d="M30,16c-.553,0-1-.448-1-1v-1c0-.552.447-1,1-1s1,.448,1,1v1c0,.552-.447,1-1,1Z" fill="#000" stroke-width="0"/>
    </g>
  </g>
</svg>