<?xml version="1.0" encoding="UTF-8"?>
<svg xmlns="http://www.w3.org/2000/svg" version="1.1" viewBox="0 0 64 64">
  <!-- Generator: Adobe Illustrator 28.7.1, SVG Export Plug-In . SVG Version: 1.2.0 Build 142)  -->
  <g>
    <g id="Outline">
      <path d="M56,26h-1.21997l-.81006-3.23999c-.10999-.45001-.50995-.76001-.96997-.76001h-4v-7c0-1.65002-1.34998-3-3-3H12c-1.65002,0-3,1.34998-3,3v25h-1c-.54999,0-1,.45001-1,1v2c0,2.76001,2.23999,5,5,5h26.69l.31,3.09998c.06.51001.48999.90002,1,.90002h12c.51001,0,.94-.39001,1-.90002l1.90997-19.09998h1.09003c.54999,0,1-.45001,1-1v-4c0-.54999-.45001-1-1-1ZM52.21997,24l.5,2h-13.43994l.5-2h12.43994ZM11,15c0-.54999.45001-1,1-1h34c.54999,0,1,.45001,1,1v7h-8c-.46002,0-.85999.31-.96997.76001l-.81006,3.23999h-1.21997c-.54999,0-1,.45001-1,1v4c0,.54999.45001,1,1,1h1.09003l.79999,8H11V15ZM19,46v-1c0-.54999-.45001-1-1-1s-1,.45001-1,1v1h-2v-1c0-.54999-.45001-1-1-1s-1,.45001-1,1v1h-1c-1.65002,0-3-1.35004-3-3v-1h29.09003l.39996,4h-19.48999ZM51.09003,50h-10.18005l-1.79999-18h13.78003l-1.79999,18ZM55,30h-18v-2h18v2Z"/>
    </g>
  </g>
</svg>