<?xml version="1.0" encoding="iso-8859-1"?>
<!-- Generator: Adobe Illustrator 25.2.0, SVG Export Plug-In . SVG Version: 6.00 Build 0)  -->
<svg version="1.1" xmlns="http://www.w3.org/2000/svg" xmlns:xlink="http://www.w3.org/1999/xlink" x="0px" y="0px"
	 viewBox="0 0 492 492" style="enable-background:new 0 0 492 492;" xml:space="preserve">
<g id="Master_Layer_2">
</g>
<g id="Layer_1">
	<g>
		<g>
			<g>
				<g>
					<g>
						<g>
							<g>
								<path style="fill-rule:evenodd;clip-rule:evenodd;fill:#212121;" d="M125.3,223.7c-19.056,0-34.56-15.503-34.56-34.56
									s15.504-34.56,34.56-34.56s34.56,15.503,34.56,34.56S144.357,223.7,125.3,223.7L125.3,223.7z M125.3,166.1
									c-12.704,0-23.04,10.336-23.04,23.04s10.336,23.04,23.04,23.04s23.04-10.336,23.04-23.04S138.005,166.1,125.3,166.1z"/>
							</g>
						</g>
						<g>
							<g>
								<path style="fill-rule:evenodd;clip-rule:evenodd;fill:#212121;" d="M165.62,333.14H84.98c-3.181,0-5.76-2.579-5.76-5.76
									v-23.04h-5.76c-3.181,0-5.76-2.579-5.76-5.76v-56.64c0-16.41,13.35-29.76,29.76-29.76h55.68
									c16.41,0,29.76,13.35,29.76,29.76v56.64c0,3.181-2.579,5.76-5.76,5.76h-5.76v23.04
									C171.38,330.561,168.801,333.14,165.62,333.14L165.62,333.14z M90.74,321.62h69.12v-23.04c0-3.181,2.579-5.76,5.76-5.76
									h5.76v-50.88c0-10.058-8.182-18.24-18.24-18.24H97.46c-10.058,0-18.24,8.182-18.24,18.24v50.88h5.76
									c3.181,0,5.76,2.579,5.76,5.76V321.62z"/>
							</g>
						</g>
						<g>
							<g>
								<path style="fill-rule:evenodd;clip-rule:evenodd;fill:#212121;" d="M154.1,425.3H96.5c-3.181,0-5.76-2.579-5.76-5.76
									v-92.16c0-3.181,2.579-5.76,5.76-5.76h57.6c3.181,0,5.76,2.579,5.76,5.76v92.16C159.86,422.721,157.281,425.3,154.1,425.3
									L154.1,425.3z M102.26,413.78h46.08v-80.64h-46.08V413.78z"/>
							</g>
						</g>
					</g>
					<g>
						<g>
							<path style="fill-rule:evenodd;clip-rule:evenodd;fill:#212121;" d="M125.3,425.3c-3.181,0-5.76-2.579-5.76-5.76v-63.36
								c0-3.181,2.579-5.76,5.76-5.76c3.181,0,5.76,2.579,5.76,5.76v63.36C131.06,422.721,128.481,425.3,125.3,425.3z"/>
						</g>
					</g>
					<g>
						<g>
							<path style="fill-rule:evenodd;clip-rule:evenodd;fill:#212121;" d="M96.5,304.34H73.46c-3.181,0-5.76-2.579-5.76-5.76
								s2.579-5.76,5.76-5.76h17.28V252.5c0-3.181,2.579-5.76,5.76-5.76s5.76,2.579,5.76,5.76v46.08
								C102.26,301.761,99.681,304.34,96.5,304.34z"/>
						</g>
					</g>
					<g>
						<g>
							<path style="fill-rule:evenodd;clip-rule:evenodd;fill:#212121;" d="M177.14,304.34H154.1c-3.181,0-5.76-2.579-5.76-5.76
								V252.5c0-3.181,2.579-5.76,5.76-5.76s5.76,2.579,5.76,5.76v40.32h17.28c3.181,0,5.76,2.579,5.76,5.76
								S180.321,304.34,177.14,304.34z"/>
						</g>
					</g>
				</g>
				<g>
					<g>
						<g>
							<g>
								<path style="fill-rule:evenodd;clip-rule:evenodd;fill:#212121;" d="M367.22,223.7c-19.056,0-34.56-15.503-34.56-34.56
									s15.504-34.56,34.56-34.56s34.56,15.503,34.56,34.56S386.277,223.7,367.22,223.7L367.22,223.7z M367.22,166.1
									c-12.704,0-23.04,10.336-23.04,23.04s10.336,23.04,23.04,23.04c12.704,0,23.04-10.336,23.04-23.04
									S379.924,166.1,367.22,166.1z"/>
							</g>
						</g>
						<g>
							<g>
								<path style="fill-rule:evenodd;clip-rule:evenodd;fill:#212121;" d="M407.54,333.14H326.9c-3.181,0-5.76-2.579-5.76-5.76
									v-23.04h-5.76c-3.181,0-5.76-2.579-5.76-5.76v-56.64c0-16.41,13.35-29.76,29.76-29.76h55.68
									c16.41,0,29.76,13.35,29.76,29.76v56.64c0,3.181-2.579,5.76-5.76,5.76h-5.76v23.04
									C413.3,330.561,410.721,333.14,407.54,333.14L407.54,333.14z M332.66,321.62h69.12v-23.04c0-3.181,2.579-5.76,5.76-5.76
									h5.76v-50.88c0-10.058-8.182-18.24-18.24-18.24h-55.68c-10.057,0-18.24,8.182-18.24,18.24v50.88h5.76
									c3.181,0,5.76,2.579,5.76,5.76V321.62z"/>
							</g>
						</g>
						<g>
							<g>
								<path style="fill-rule:evenodd;clip-rule:evenodd;fill:#212121;" d="M396.02,425.3h-57.6c-3.181,0-5.76-2.579-5.76-5.76
									v-92.16c0-3.181,2.579-5.76,5.76-5.76h57.6c3.181,0,5.76,2.579,5.76,5.76v92.16C401.78,422.721,399.201,425.3,396.02,425.3
									L396.02,425.3z M344.18,413.78h46.08v-80.64h-46.08V413.78z"/>
							</g>
						</g>
					</g>
					<g>
						<g>
							<path style="fill-rule:evenodd;clip-rule:evenodd;fill:#212121;" d="M367.22,425.3c-3.181,0-5.76-2.579-5.76-5.76v-63.36
								c0-3.181,2.579-5.76,5.76-5.76s5.76,2.579,5.76,5.76v63.36C372.98,422.721,370.401,425.3,367.22,425.3z"/>
						</g>
					</g>
					<g>
						<g>
							<path style="fill-rule:evenodd;clip-rule:evenodd;fill:#212121;" d="M338.42,304.34h-23.04c-3.181,0-5.76-2.579-5.76-5.76
								s2.579-5.76,5.76-5.76h17.28V252.5c0-3.181,2.579-5.76,5.76-5.76c3.181,0,5.76,2.579,5.76,5.76v46.08
								C344.18,301.761,341.601,304.34,338.42,304.34z"/>
						</g>
					</g>
					<g>
						<g>
							<path style="fill-rule:evenodd;clip-rule:evenodd;fill:#212121;" d="M419.06,304.34h-23.04c-3.181,0-5.76-2.579-5.76-5.76
								V252.5c0-3.181,2.579-5.76,5.76-5.76s5.76,2.579,5.76,5.76v40.32h17.28c3.181,0,5.76,2.579,5.76,5.76
								S422.241,304.34,419.06,304.34z"/>
						</g>
					</g>
				</g>
				<g>
					<g>
						<g>
							<path style="fill-rule:evenodd;clip-rule:evenodd;fill:#212121;" d="M257.78,212.18h-23.04c-3.181,0-5.76-2.579-5.76-5.76
								v-40.575c0-4.55,1.776-8.824,5-12.035c3.233-3.22,7.53-4.99,12.107-4.99c0.025,0,0.049,0,0.074,0l0.098,0
								c3.208,0,6.307-0.644,9.212-1.915c8.402-3.669,13.828-11.961,13.828-21.125c0-6.237-2.453-12.079-6.907-16.448
								c-4.452-4.368-10.342-6.707-16.588-6.588c-6.262,0.12-12.057,2.669-16.316,7.178c-4.268,4.518-6.488,10.462-6.252,16.739
								c0.041,1.087,0.16,2.18,0.352,3.247c0.565,3.128-1.51,6.123-4.638,6.692l-22.673,4.121c-1.503,0.273-3.054-0.062-4.31-0.932
								c-1.256-0.87-2.115-2.204-2.388-3.708c-0.61-3.371-0.92-6.837-0.92-10.301c0-15.385,5.992-29.849,16.871-40.729
								c10.88-10.879,25.344-16.871,40.729-16.871c15.392,0,29.848,5.965,40.706,16.797c10.858,10.832,16.858,25.274,16.894,40.665
								c0.031,13.164-4.495,26.046-12.743,36.274c-7.145,8.859-16.812,15.431-27.577,18.824l0,25.681
								C263.54,209.601,260.961,212.18,257.78,212.18L257.78,212.18z M240.5,200.66h11.52v-24.324c0-2.69,1.862-5.022,4.485-5.617
								c20.814-4.724,35.885-23.67,35.835-45.05c-0.06-25.347-20.731-45.969-46.08-45.969c-25.409,0-46.08,20.671-46.08,46.08
								c0,0.838,0.023,1.675,0.067,2.511l11.455-2.082c-0.118-9.065,3.206-17.628,9.413-24.197
								c6.4-6.775,15.09-10.605,24.469-10.785c9.361-0.179,18.198,3.33,24.877,9.882c6.68,6.554,10.359,15.316,10.359,24.672
								c0,13.744-8.139,26.18-20.735,31.681c-4.366,1.91-9.019,2.879-13.825,2.879l-0.14,0c-0.008,0-0.016,0-0.025,0
								c-1.517,0-2.929,0.579-3.987,1.633c-1.038,1.033-1.609,2.408-1.609,3.872V200.66z"/>
						</g>
					</g>
					<g>
						<g>
							<path style="fill-rule:evenodd;clip-rule:evenodd;fill:#212121;" d="M246.26,258.26c-9.528,0-17.28-7.752-17.28-17.28
								s7.752-17.28,17.28-17.28c9.528,0,17.28,7.752,17.28,17.28S255.788,258.26,246.26,258.26L246.26,258.26z M246.26,235.22
								c-3.176,0-5.76,2.584-5.76,5.76c0,3.176,2.584,5.76,5.76,5.76c3.176,0,5.76-2.584,5.76-5.76
								C252.02,237.804,249.436,235.22,246.26,235.22z"/>
						</g>
					</g>
				</g>
			</g>
		</g>
	</g>
</g>
</svg>
