<?xml version="1.0" encoding="UTF-8"?>
<svg id="Layer_1" data-name="Layer 1" xmlns="http://www.w3.org/2000/svg" viewBox="0 0 900 900">
  <defs>
    <style>
      .cls-1 {
        stroke: #b73232;
      }

      .cls-1, .cls-2 {
        stroke-miterlimit: 10;
      }

      .cls-1, .cls-2, .cls-3 {
        fill: none;
        stroke-linecap: round;
      }

      .cls-1, .cls-3 {
        stroke-width: 15px;
      }

      .cls-2 {
        stroke: #161616;
        stroke-width: 10px;
      }

      .cls-3 {
        stroke: #db7b7b;
        stroke-linejoin: round;
      }

      .cls-4 {
        fill: #b73232;
      }

      .cls-4, .cls-5, .cls-6 {
        stroke-width: 0px;
      }

      .cls-5 {
        fill: #ffa1a1;
      }

      .cls-6 {
        fill: #ffc639;
      }
    </style>
  </defs>
  <g>
    <path class="cls-5" d="M442.46,251.6c-15.85-15.05-37.9-23.36-59.74-22.51-21.84.85-43.18,10.84-57.82,27.07-15.81-4.36-32.44,1.63-47.74,7.54-9.77,3.77-19.55,7.55-29.32,11.32-14.15,5.46-28.78,11.24-39.26,22.2-10.48,10.96-15.52,28.69-7.51,41.57-3.1-.86-5.84.56-8.77,1.9-2.93,1.33-5.37,3.73-6.76,6.63-1.57,3.29-1.78,7.05-1.97,10.7-5.5.75-10.34,3.7-14.15,7.74-3.81,4.04-6.47,9.05-8.46,14.23-4.8,12.56-5.75,26.57-2.69,39.67,3.06,13.1,10.12,25.23,19.99,34.37-4.79.86-9.28,3.49-11.81,7.64-2.53,4.16-3.63,9.05-3.99,13.9-1.11,14.89,4.74,30.16,15.51,40.51,3.44,12.98,6.66,24.78,13.17,36.53,6.52,11.74,16.47,22.13,29.2,26.38,2.65,12.17,11.89,22.44,22.97,28.11,11.08,5.68,23.79,7.46,36.24,7.53,10.48.06,21.52-1.23,30.04-7.34,13.41,13.36,32.52,20.66,51.45,20.15,7.42-.2,14.76-1.58,21.99-3.26,7.63-1.78,15.18-3.92,22.61-6.39,9.94,8.17,23.58,12.17,36.44,11.58,3.62-.17,7.32-.74,10.49-2.51,3.38-1.88,5.99-5.11,7.13-8.81,4.91,5.29,11.52,8.59,18.62,9.94,7.09,1.35,14.61.38,21.13-2.73,25.32,11.05,57.3,5.57,76.56-14.24,14.45.75,29.54.35,43.99,1.1,7.42.38,14.9.76,22.24-.39s14.62-3.98,19.91-9.2c5.29-5.22,8.26-13.09,6.45-20.3,12.77-1.43,25.11-7.38,33.03-17.5,7.92-10.12,11.58-23.47,9.91-36.22,18.61-12.28,28.93-36.63,23.94-58.37-1.56-6.78-4.53-13.43-9.63-18.16,8.15-5.96,13.43-16.79,11.15-26.63-1.21-5.22-4.04-10.29-3.28-15.59,1.26-8.78,2.67-18.43.18-26.95-2.92-9.99-11.12-18.28-21.08-21.31.95-7.46-1.27-14.96-5.31-21.3-4.05-6.34-10.37-11.2-17.54-13.49,1.38-6.78-4.2-13.49-8.79-18.68-16.61-18.77-40.61-30.81-65.58-32.91-4.88-7.51-12.54-12.98-21.02-15.85-8.49-2.86-17.94-2.78-26.37.24-17.83-17.99-44.48-27.12-69.54-23.45-10.33,1.51-20.25,4.99-30.1,8.45-8.14,2.86-17.94,4.22-26.09,7.08Z"/>
    <path class="cls-3" d="M442.46,251.6c-15.85-15.05-37.9-23.36-59.74-22.51-21.84.85-43.18,10.84-57.82,27.07-15.81-4.36-32.44,1.63-47.74,7.54-9.77,3.77-19.55,7.55-29.32,11.32-14.15,5.46-28.78,11.24-39.26,22.2-10.48,10.96-15.52,28.69-7.51,41.57-3.1-.86-5.84.56-8.77,1.9-2.93,1.33-5.37,3.73-6.76,6.63-1.57,3.29-1.78,7.05-1.97,10.7-5.5.75-10.34,3.7-14.15,7.74-3.81,4.04-6.47,9.05-8.46,14.23-4.8,12.56-5.75,26.57-2.69,39.67,3.06,13.1,10.12,25.23,19.99,34.37-4.79.86-9.28,3.49-11.81,7.64-2.53,4.16-3.63,9.05-3.99,13.9-1.11,14.89,4.74,30.16,15.51,40.51,3.44,12.98,6.66,24.78,13.17,36.53,6.52,11.74,16.47,22.13,29.2,26.38,2.65,12.17,11.89,22.44,22.97,28.11,11.08,5.68,23.79,7.46,36.24,7.53,10.48.06,21.52-1.23,30.04-7.34,13.41,13.36,32.52,20.66,51.45,20.15,7.42-.2,14.76-1.58,21.99-3.26,7.63-1.78,15.18-3.92,22.61-6.39,9.94,8.17,23.58,12.17,36.44,11.58,3.62-.17,7.32-.74,10.49-2.51,3.38-1.88,5.99-5.11,7.13-8.81,4.91,5.29,11.52,8.59,18.62,9.94,7.09,1.35,14.61.38,21.13-2.73,25.32,11.05,57.3,5.57,76.56-14.24,14.45.75,29.54.35,43.99,1.1,7.42.38,14.9.76,22.24-.39s14.62-3.98,19.91-9.2c5.29-5.22,8.26-13.09,6.45-20.3,12.77-1.43,25.11-7.38,33.03-17.5,7.92-10.12,11.58-23.47,9.91-36.22,18.61-12.28,28.93-36.63,23.94-58.37-1.56-6.78-4.53-13.43-9.63-18.16,8.15-5.96,13.43-16.79,11.15-26.63-1.21-5.22-4.04-10.29-3.28-15.59,1.26-8.78,2.67-18.43.18-26.95-2.92-9.99-11.12-18.28-21.08-21.31.95-7.46-1.27-14.96-5.31-21.3-4.05-6.34-10.37-11.2-17.54-13.49,1.38-6.78-4.2-13.49-8.79-18.68-16.61-18.77-40.61-30.81-65.58-32.91-4.88-7.51-12.54-12.98-21.02-15.85-8.49-2.86-17.94-2.78-26.37.24-17.83-17.99-44.48-27.12-69.54-23.45-10.33,1.51-20.25,4.99-30.1,8.45-8.14,2.86-17.94,4.22-26.09,7.08Z"/>
    <path class="cls-3" d="M199.08,335.34c5.47,7.76,11.42,15.47,19.46,20.52,9.09,5.71,20.53,7.53,30.94,4.91,10.41-2.62,19.63-9.64,24.93-18.97"/>
    <path class="cls-3" d="M328.88,258.82c-5.72,12.65-11.55,26.74-7.46,40,2.79,9.04,9.83,16.14,17.34,21.9,9.45,7.25,20.37,13.12,32.21,14.42,11.84,1.3,24.69-2.62,32.06-11.97,8.88-11.26,7.38-29.32-3.23-38.97"/>
    <path class="cls-3" d="M564.62,257.28c1.93,17.37-3.23,35.42-14.04,49.14-6.43,8.15-15.06,14.93-25.16,17.34-10.09,2.42-21.68-.15-28.57-7.91-6.89-7.76-7.63-20.84-.43-28.32"/>
    <path class="cls-3" d="M439.54,251.59c14.38,21.83,23.05,47.38,24.91,73.45.75,10.53.34,21.49-4.16,31.04-4.49,9.55-13.84,17.41-24.39,17.52"/>
    <path class="cls-3" d="M178.97,452.51c17.57,8.39,38.67,9.03,56.71,1.71,18.04-7.32,32.73-22.49,39.48-40.75"/>
    <path class="cls-3" d="M179.57,360.73c5.92.85,11.52,3.85,15.49,8.32,5.14,5.78,7.4,13.67,7.75,21.39.35,7.73-1.05,15.41-2.45,23.02"/>
    <path class="cls-3" d="M177.29,518.45c25.68,1.62,51.86-7.85,70.56-25.52"/>
    <path class="cls-3" d="M354.13,481.07c-3.49-9.44-14.71-14.66-24.63-12.96-9.92,1.69-18.2,9.17-22.79,18.13-2.21,4.32-3.7,9.34-2.42,14.02,1.28,4.68,6.14,8.6,10.85,7.43"/>
    <path class="cls-3" d="M306.25,608.16c9.33-1.35,15.32-10.31,20.11-18.43,5.89-9.98,11.78-19.95,17.67-29.93,4.25-7.19,8.55-14.52,10.49-22.64,1.94-8.12,1.2-17.31-3.93-23.9"/>
    <path class="cls-3" d="M224.37,579.85c2.56-6.23,5.12-12.45,7.68-18.68,1.51-3.68,3.14-7.52,6.2-10.07,5.18-4.32,13.04-3.65,19.1-.7,6.06,2.95,10.97,7.78,16.48,11.65s12.28,6.9,18.86,5.44"/>
    <path class="cls-3" d="M408.72,617.69c.51-17.87,2.39-35.7,5.62-53.29.83-4.49,1.77-9.06,4.02-13.03,2.25-3.98,6.05-7.33,10.57-7.94"/>
    <path class="cls-3" d="M442.28,579.6c4.32-1.17,9.62-2.08,12.69,1.17,2.09,2.22,2.28,5.57,2.34,8.61.2,9.3.41,18.6.61,27.9"/>
    <path class="cls-3" d="M509.91,625.31c-5.87-3.63-11.6-8.05-14.64-14.25-3.04-6.2-2.63-14.53,2.55-19.09,5.7-5.01,14.3-3.78,21.88-4.06,8.79-.32,17.47-3.13,24.78-8.02"/>
    <path class="cls-3" d="M481.86,541.68c15.52-7.39,33.45-10.2,50.19-6.34,16.74,3.87,32.06,14.76,39.86,30.08,7.79,15.32,7.33,34.9-2.43,49.05"/>
    <path class="cls-3" d="M668.73,580.31c-18.23-8.28-39.05-7.9-59.06-7.37"/>
    <path class="cls-3" d="M712.53,526.82c-23.82,4.65-49.91-5.59-64.21-25.21-2.84-3.9-5.28-8.23-6.09-12.99s.25-10.01,3.61-13.47"/>
    <path class="cls-3" d="M561.19,513.54c2.29-6.12,4.63-12.35,8.6-17.54,3.97-5.19,9.88-9.3,16.42-9.51,5.65-.18,11.07,2.55,15.38,6.2,4.89,4.14,8.79,9.76,9.75,16.1.96,6.34-1.45,13.36-6.8,16.89"/>
    <path class="cls-3" d="M591.04,451.59c-.86-7.94-1.72-15.95-.94-23.89.78-7.95,3.34-15.93,8.58-21.96,5.24-6.02,13.46-9.78,21.32-8.39"/>
    <path class="cls-3" d="M725.98,455.75c-3.16-1.41-6.32-2.81-9.49-4.22-4.38-1.95-9.17-3.94-13.83-2.81-3.99.97-7.16,4.15-9.09,7.78-1.93,3.63-2.79,7.72-3.63,11.74-1.08,5.13-2.15,10.26-3.23,15.4"/>
    <path class="cls-3" d="M708.78,364.46c-9.25,14.37-18.49,28.74-27.74,43.11-3.99,6.2-8.15,12.58-14.25,16.73-6.1,4.15-14.72,5.52-20.77,1.3"/>
    <path class="cls-3" d="M686.1,328.55c-11.78,3.55-23.57,7.1-35.35,10.64-4.16,1.25-8.37,2.53-12.05,4.84-3.68,2.31-6.82,5.81-7.71,10.06-1.34,6.38,2.49,12.57,6.15,17.96,3.6,5.31,7.21,10.62,10.81,15.93"/>
    <path class="cls-3" d="M614.54,277.57c-.98,2.23-1.96,4.46-2.94,6.68-1.4,3.19-2.83,6.55-2.52,10.02.32,3.61,2.53,6.83,5.3,9.16s6.1,3.88,9.38,5.41"/>
    <path class="cls-3" d="M561.31,378.05c3.16-3.78,4.13-9.26,2.46-13.89-1.32-3.69-4.19-6.91-4.32-10.83-.14-4.18,2.9-7.76,6.05-10.51,5.78-5.04,12.6-8.87,19.9-11.18"/>
  </g>
  <path class="cls-4" d="M375.99,698.64l-.73,33.24,42.08,8.42s-16.39,17.52-15.04,41.56,34.72,24.39,34.72,24.39l2.33-106.22-63.36-1.39Z"/>
  <path class="cls-2" d="M365.16,398.13c-1.67,10.6,3.29,21.97,12.21,27.95s21.31,6.27,30.49.7c9.18-5.56,14.66-16.69,13.49-27.36"/>
  <path class="cls-2" d="M479.46,398.13c-1.67,10.6,3.29,21.97,12.21,27.95,8.91,5.98,21.31,6.27,30.49.7,9.18-5.56,14.66-16.69,13.49-27.36"/>
  <path class="cls-2" d="M416.27,459.29c-2.03,12.89,4,26.7,14.84,33.98,10.83,7.27,25.91,7.62,37.06.86,11.16-6.76,17.82-20.29,16.39-33.25"/>
  <path class="cls-4" d="M792.96,415.57c-.57-.79-1.26-1.43-2.03-1.92.34-3.8-.33-7.72-2.51-11.11-4.68-7.28-13.42-10.46-20.77-7.56-3.85,1.52-5.75,5.87-4.23,9.73,1.52,3.85,5.88,5.75,9.73,4.23.49-.2,1.83.44,2.66,1.72.43.67.26,3.37-1.1,5.15-1.78,2.33-4.16,2.43-4.83,2.4-.03,0-.05,0-.08,0-.17,0-.34,0-.52,0-.08,0-.15,0-.23,0-.17.01-.34.03-.5.06-.08.01-.16.02-.24.03-.15.03-.3.06-.45.1-.09.02-.18.04-.27.06-.14.04-.27.09-.41.13-.09.03-.19.06-.28.1-.06.02-.11.05-.17.07-2.34-.81-6.94-2.43-8.07-3.73.04-.64.36-2.04,2.11-3.53,3.15-2.69,3.53-7.42.84-10.57-2.69-3.15-7.42-3.53-10.57-.84-6.86,5.86-7.44,12.83-7.38,15.56.24,9.32,8.23,13.56,14.76,16.07-11.26,21.5-28.38,40.02-48.99,52.8-23.43,14.54-51.5,21.74-79.04,20.29-4.13-.23-7.67,2.96-7.88,7.09s2.96,7.67,7.09,7.88c2.58.14,5.16.2,7.74.2,28.04,0,56.18-7.95,80-22.73,24.03-14.91,43.77-36.84,56.21-62.25.61-.07,1.2-.17,1.78-.29.67.32,1.39.54,2.16.65.33.05.8.07,1.37.07,2.49,0,6.89-.51,9.38-2.23.11-.07.24-.15.36-.23,1.12-.69,3-1.84,4.31-3.91,2.87-4.52,2.89-9.57.05-13.53Z"/>
  <path class="cls-4" d="M107.04,415.57c.57-.79,1.26-1.43,2.03-1.92-.34-3.8.33-7.72,2.51-11.11,4.68-7.28,13.42-10.46,20.77-7.56,3.85,1.52,5.75,5.87,4.23,9.73-1.52,3.85-5.88,5.75-9.73,4.23-.49-.2-1.83.44-2.66,1.72-.43.67-.26,3.37,1.1,5.15,1.78,2.33,4.16,2.43,4.83,2.4.03,0,.05,0,.08,0,.17,0,.34,0,.52,0,.08,0,.15,0,.23,0,.17.01.34.03.5.06.08.01.16.02.24.03.15.03.3.06.45.1.09.02.18.04.27.06.14.04.27.09.41.13.09.03.19.06.28.1.06.02.11.05.17.07,2.34-.81,6.94-2.43,8.07-3.73-.04-.64-.36-2.04-2.11-3.53-3.15-2.69-3.53-7.42-.84-10.57,2.69-3.15,7.42-3.53,10.57-.84,6.86,5.86,7.44,12.83,7.38,15.56-.24,9.32-8.23,13.56-14.76,16.07,11.26,21.5,28.38,40.02,48.99,52.8,23.43,14.54,51.5,21.74,79.04,20.29,4.13-.23,7.67,2.96,7.88,7.09s-2.96,7.67-7.09,7.88c-2.58.14-5.16.2-7.74.2-28.04,0-56.18-7.95-80-22.73-24.03-14.91-43.77-36.84-56.21-62.25-.61-.07-1.2-.17-1.78-.29-.67.32-1.39.54-2.16.65-.33.05-.8.07-1.37.07-2.49,0-6.89-.51-9.38-2.23-.11-.07-.24-.15-.36-.23-1.12-.69-3-1.84-4.31-3.91-2.87-4.52-2.89-9.57-.05-13.53Z"/>
  <path class="cls-1" d="M372.87,619.36c-28.35,3.38-56.23,10.61-82.64,21.44-6.84,2.8-13.71,5.93-19.13,10.96-5.42,5.02-9.23,12.3-8.41,19.64,1.14,10.15,10.32,17.31,19.15,22.45,35.23,20.48,77.68,28.22,117.87,21.49"/>
  <path class="cls-4" d="M524.65,698.64l.73,33.24-42.08,8.42s16.39,17.52,15.04,41.56c-1.35,24.04-34.72,24.39-34.72,24.39l-2.33-106.22,63.36-1.39Z"/>
  <path class="cls-1" d="M527.78,619.36c28.35,3.38,56.23,10.61,82.64,21.44,6.84,2.8,13.71,5.93,19.13,10.96,5.42,5.02,9.23,12.3,8.41,19.64-1.14,10.15-10.32,17.31-19.15,22.45-35.23,20.48-77.68,28.22-117.87,21.49"/>
  <path class="cls-6" d="M447,162.14c-40.67,0-78.94-3.12-107.78-8.79-32.22-6.34-47.89-14.64-47.89-25.4s15.66-19.06,47.89-25.4c28.83-5.67,67.11-8.79,107.78-8.79s78.94,3.12,107.78,8.79c32.22,6.34,47.89,14.64,47.89,25.4s-15.66,19.06-47.89,25.4c-28.83,5.67-67.11,8.79-107.78,8.79ZM447,102.67c-40.11,0-77.77,3.06-106.06,8.62-40.22,7.91-40.68,16.56-40.68,16.64s.46,8.74,40.68,16.64c28.28,5.56,65.95,8.62,106.06,8.62s77.77-3.06,106.06-8.62c40.22-7.91,40.68-16.56,40.68-16.64s-.46-8.74-40.68-16.64c-28.28-5.56-65.95-8.62-106.06-8.62Z"/>
</svg>