<?xml version="1.0" encoding="UTF-8"?>
<svg id="Layer_1" data-name="Layer 1" xmlns="http://www.w3.org/2000/svg" viewBox="0 0 900 900">
  <defs>
    <style>
      .cls-1 {
        stroke: #b73232;
        stroke-miterlimit: 10;
      }

      .cls-1, .cls-2 {
        fill: none;
        stroke-linecap: round;
        stroke-width: 15px;
      }

      .cls-2 {
        stroke: #db7b7b;
        stroke-linejoin: round;
      }

      .cls-3 {
        fill: #161616;
      }

      .cls-3, .cls-4, .cls-5, .cls-6 {
        stroke-width: 0px;
      }

      .cls-4 {
        fill: #b73232;
      }

      .cls-5 {
        fill: #ffa1a1;
      }

      .cls-6 {
        fill: #fff;
      }
    </style>
  </defs>
  <g>
    <path class="cls-5" d="M443.8,214.65c-15.85-15.05-37.9-23.36-59.74-22.51-21.84.85-43.18,10.84-57.82,27.07-15.81-4.36-32.44,1.63-47.74,7.54-9.77,3.77-19.55,7.55-29.32,11.32-14.15,5.46-28.78,11.24-39.26,22.2s-15.52,28.69-7.51,41.57c-3.1-.86-5.84.56-8.77,1.9-2.93,1.33-5.37,3.73-6.76,6.63-1.57,3.29-1.78,7.05-1.97,10.7-5.5.75-10.34,3.7-14.15,7.74-3.81,4.04-6.47,9.05-8.46,14.23-4.8,12.56-5.75,26.57-2.69,39.67,3.06,13.1,10.12,25.23,19.99,34.37-4.79.86-9.28,3.49-11.81,7.64-2.53,4.16-3.63,9.05-3.99,13.9-1.11,14.89,4.74,30.16,15.51,40.51,3.44,12.98,6.66,24.78,13.17,36.53,6.52,11.74,16.47,22.13,29.2,26.38,2.65,12.17,11.89,22.44,22.97,28.11,11.08,5.68,23.79,7.46,36.24,7.53,10.48.06,21.52-1.23,30.04-7.34,13.41,13.36,32.52,20.66,51.45,20.15,7.42-.2,14.76-1.58,21.99-3.26,7.63-1.78,15.18-3.92,22.61-6.39,9.94,8.17,23.58,12.17,36.44,11.58,3.62-.17,7.32-.74,10.49-2.51,3.38-1.88,5.99-5.11,7.13-8.81,4.91,5.29,11.52,8.59,18.62,9.94,7.09,1.35,14.61.38,21.13-2.73,25.32,11.05,57.3,5.57,76.56-14.24,14.45.75,29.54.35,43.99,1.1,7.42.38,14.9.76,22.24-.39s14.62-3.98,19.91-9.2c5.29-5.22,8.26-13.09,6.45-20.3,12.77-1.43,25.11-7.38,33.03-17.5,7.92-10.12,11.58-23.47,9.91-36.22,18.61-12.28,28.93-36.63,23.94-58.37-1.56-6.78-4.53-13.43-9.63-18.16,8.15-5.96,13.43-16.79,11.15-26.63-1.21-5.22-4.04-10.29-3.28-15.59,1.26-8.78,2.67-18.43.18-26.95-2.92-9.99-11.12-18.28-21.08-21.31.95-7.46-1.27-14.96-5.31-21.3-4.05-6.34-10.37-11.2-17.54-13.49,1.38-6.78-4.2-13.49-8.79-18.68-16.61-18.77-40.61-30.81-65.58-32.91-4.88-7.51-12.54-12.98-21.02-15.85-8.49-2.86-17.94-2.78-26.37.24-17.83-17.99-44.48-27.12-69.54-23.45-10.33,1.51-20.25,4.99-30.1,8.45-8.14,2.86-17.94,4.22-26.09,7.08Z"/>
    <path class="cls-2" d="M443.8,214.65c-15.85-15.05-37.9-23.36-59.74-22.51-21.84.85-43.18,10.84-57.82,27.07-15.81-4.36-32.44,1.63-47.74,7.54-9.77,3.77-19.55,7.55-29.32,11.32-14.15,5.46-28.78,11.24-39.26,22.2s-15.52,28.69-7.51,41.57c-3.1-.86-5.84.56-8.77,1.9-2.93,1.33-5.37,3.73-6.76,6.63-1.57,3.29-1.78,7.05-1.97,10.7-5.5.75-10.34,3.7-14.15,7.74-3.81,4.04-6.47,9.05-8.46,14.23-4.8,12.56-5.75,26.57-2.69,39.67,3.06,13.1,10.12,25.23,19.99,34.37-4.79.86-9.28,3.49-11.81,7.64-2.53,4.16-3.63,9.05-3.99,13.9-1.11,14.89,4.74,30.16,15.51,40.51,3.44,12.98,6.66,24.78,13.17,36.53,6.52,11.74,16.47,22.13,29.2,26.38,2.65,12.17,11.89,22.44,22.97,28.11,11.08,5.68,23.79,7.46,36.24,7.53,10.48.06,21.52-1.23,30.04-7.34,13.41,13.36,32.52,20.66,51.45,20.15,7.42-.2,14.76-1.58,21.99-3.26,7.63-1.78,15.18-3.92,22.61-6.39,9.94,8.17,23.58,12.17,36.44,11.58,3.62-.17,7.32-.74,10.49-2.51,3.38-1.88,5.99-5.11,7.13-8.81,4.91,5.29,11.52,8.59,18.62,9.94,7.09,1.35,14.61.38,21.13-2.73,25.32,11.05,57.3,5.57,76.56-14.24,14.45.75,29.54.35,43.99,1.1,7.42.38,14.9.76,22.24-.39s14.62-3.98,19.91-9.2c5.29-5.22,8.26-13.09,6.45-20.3,12.77-1.43,25.11-7.38,33.03-17.5,7.92-10.12,11.58-23.47,9.91-36.22,18.61-12.28,28.93-36.63,23.94-58.37-1.56-6.78-4.53-13.43-9.63-18.16,8.15-5.96,13.43-16.79,11.15-26.63-1.21-5.22-4.04-10.29-3.28-15.59,1.26-8.78,2.67-18.43.18-26.95-2.92-9.99-11.12-18.28-21.08-21.31.95-7.46-1.27-14.96-5.31-21.3-4.05-6.34-10.37-11.2-17.54-13.49,1.38-6.78-4.2-13.49-8.79-18.68-16.61-18.77-40.61-30.81-65.58-32.91-4.88-7.51-12.54-12.98-21.02-15.85-8.49-2.86-17.94-2.78-26.37.24-17.83-17.99-44.48-27.12-69.54-23.45-10.33,1.51-20.25,4.99-30.1,8.45-8.14,2.86-17.94,4.22-26.09,7.08Z"/>
    <path class="cls-2" d="M200.43,298.4c5.47,7.76,11.42,15.47,19.46,20.52,9.09,5.71,20.53,7.53,30.94,4.91,10.41-2.62,19.63-9.64,24.93-18.97"/>
    <path class="cls-2" d="M330.22,221.87c-5.72,12.65-11.55,26.74-7.46,40,2.79,9.04,9.83,16.14,17.34,21.9,9.45,7.25,20.37,13.12,32.21,14.42,11.84,1.3,24.69-2.62,32.06-11.97,8.88-11.26,7.38-29.32-3.23-38.97"/>
    <path class="cls-2" d="M565.97,220.33c1.93,17.37-3.23,35.42-14.04,49.14-6.43,8.15-15.06,14.93-25.16,17.34-10.09,2.42-21.68-.15-28.57-7.91-6.89-7.76-7.63-20.84-.43-28.32"/>
    <path class="cls-2" d="M440.88,214.65c14.38,21.83,23.05,47.38,24.91,73.45.75,10.53.34,21.49-4.16,31.04-4.49,9.55-13.84,17.41-24.39,17.52"/>
    <path class="cls-2" d="M180.31,415.57c17.57,8.39,38.67,9.03,56.71,1.71,18.04-7.32,32.73-22.49,39.48-40.75"/>
    <path class="cls-2" d="M180.91,323.79c5.92.85,11.52,3.85,15.49,8.32,5.14,5.78,7.4,13.67,7.75,21.39s-1.05,15.41-2.45,23.02"/>
    <path class="cls-2" d="M178.64,481.51c25.68,1.62,51.86-7.85,70.56-25.52"/>
    <path class="cls-2" d="M355.47,444.13c-3.49-9.44-14.71-14.66-24.63-12.96-9.92,1.69-18.2,9.17-22.79,18.13-2.21,4.32-3.7,9.34-2.42,14.02,1.28,4.68,6.14,8.6,10.85,7.43"/>
    <path class="cls-2" d="M307.6,571.22c9.33-1.35,15.32-10.31,20.11-18.43,5.89-9.98,11.78-19.95,17.67-29.93,4.25-7.19,8.55-14.52,10.49-22.64,1.94-8.12,1.2-17.31-3.93-23.9"/>
    <path class="cls-2" d="M225.72,542.91c2.56-6.23,5.12-12.45,7.68-18.68,1.51-3.68,3.14-7.52,6.2-10.07,5.18-4.32,13.04-3.65,19.1-.7,6.06,2.95,10.97,7.78,16.48,11.65,5.51,3.87,12.28,6.9,18.86,5.44"/>
    <path class="cls-2" d="M410.06,580.74c.51-17.87,2.39-35.7,5.62-53.29.83-4.49,1.77-9.06,4.02-13.03,2.25-3.98,6.05-7.33,10.57-7.94"/>
    <path class="cls-2" d="M443.63,542.65c4.32-1.17,9.62-2.08,12.69,1.17,2.09,2.22,2.28,5.57,2.34,8.61.2,9.3.41,18.6.61,27.9"/>
    <path class="cls-2" d="M511.26,588.37c-5.87-3.63-11.6-8.05-14.64-14.25-3.04-6.2-2.63-14.53,2.55-19.09,5.7-5.01,14.3-3.78,21.88-4.06,8.79-.32,17.47-3.13,24.78-8.02"/>
    <path class="cls-2" d="M483.2,504.74c15.52-7.39,33.45-10.2,50.19-6.34,16.74,3.87,32.06,14.76,39.86,30.08,7.79,15.32,7.33,34.9-2.43,49.05"/>
    <path class="cls-2" d="M670.08,543.37c-18.23-8.28-39.05-7.9-59.06-7.37"/>
    <path class="cls-2" d="M713.87,489.88c-23.82,4.65-49.91-5.59-64.21-25.21-2.84-3.9-5.28-8.23-6.09-12.99s.25-10.01,3.61-13.47"/>
    <path class="cls-2" d="M562.54,476.6c2.29-6.12,4.63-12.35,8.6-17.54,3.97-5.19,9.88-9.3,16.42-9.51,5.65-.18,11.07,2.55,15.38,6.2,4.89,4.14,8.79,9.76,9.75,16.1.96,6.34-1.45,13.36-6.8,16.89"/>
    <path class="cls-2" d="M592.38,414.65c-.86-7.94-1.72-15.95-.94-23.89s3.34-15.93,8.58-21.96c5.24-6.02,13.46-9.78,21.32-8.39"/>
    <path class="cls-2" d="M727.33,418.8c-3.16-1.41-6.32-2.81-9.49-4.22-4.38-1.95-9.17-3.94-13.83-2.81-3.99.97-7.16,4.15-9.09,7.78-1.93,3.63-2.79,7.72-3.63,11.74-1.08,5.13-2.15,10.26-3.23,15.4"/>
    <path class="cls-2" d="M710.13,327.51c-9.25,14.37-18.49,28.74-27.74,43.11-3.99,6.2-8.15,12.58-14.25,16.73-6.1,4.15-14.72,5.52-20.77,1.3"/>
    <path class="cls-2" d="M687.45,291.61c-11.78,3.55-23.57,7.1-35.35,10.64-4.16,1.25-8.37,2.53-12.05,4.84s-6.82,5.81-7.71,10.06c-1.34,6.38,2.49,12.57,6.15,17.96,3.6,5.31,7.21,10.62,10.81,15.93"/>
    <path class="cls-2" d="M615.89,240.63c-.98,2.23-1.96,4.46-2.94,6.68-1.4,3.19-2.83,6.55-2.52,10.02.32,3.61,2.53,6.83,5.3,9.16,2.77,2.33,6.1,3.88,9.38,5.41"/>
    <path class="cls-2" d="M562.65,341.11c3.16-3.78,4.13-9.26,2.46-13.89-1.32-3.69-4.19-6.91-4.32-10.83-.14-4.18,2.9-7.76,6.05-10.51,5.78-5.04,12.6-8.87,19.9-11.18"/>
  </g>
  <path class="cls-4" d="M340.19,726.38c-2.26,0-4.5-1.02-5.98-2.96l-47.63-62.64c-3.54-4.66-11.83-15.56-7.51-26.98,3.5-9.24,13.22-12.94,18.44-14.93l107.36-40.86c3.87-1.47,8.2.47,9.68,4.34,1.47,3.87-.47,8.2-4.34,9.68l-107.36,40.86c-4.49,1.71-8.77,3.64-9.75,6.22-1.24,3.27,2.5,8.75,5.42,12.59l47.63,62.64c2.51,3.3,1.87,8-1.43,10.51-1.36,1.03-2.95,1.53-4.53,1.53Z"/>
  <path class="cls-4" d="M559.27,710.48h33.25l7.5,42.25s17.88-16,41.88-14.12,23.62,35.25,23.62,35.25h-106.25s0-63.37,0-63.37Z"/>
  <path class="cls-4" d="M351.66,710.48h-33.25s-7.5,42.25-7.5,42.25c0,0-17.87-16-41.87-14.13-24,1.87-23.63,35.25-23.63,35.25h106.25s0-63.37,0-63.37Z"/>
  <path class="cls-4" d="M570.86,726.38c2.26,0,4.5-1.02,5.98-2.96l47.63-62.64c3.54-4.66,11.83-15.56,7.51-26.98-3.5-9.24-13.22-12.94-18.44-14.93l-107.36-40.86c-3.87-1.47-8.2.47-9.68,4.34-1.47,3.87.47,8.2,4.34,9.68l107.36,40.86c4.49,1.71,8.77,3.64,9.75,6.22,1.24,3.27-2.5,8.75-5.42,12.59l-47.63,62.64c-2.51,3.3-1.87,8,1.43,10.51,1.36,1.03,2.95,1.53,4.53,1.53Z"/>
  <path class="cls-1" d="M239.05,401.54c-40.62-67.08-68.47-141.86-81.63-219.17"/>
  <rect class="cls-3" x="85.09" y="166.43" width="145.5" height="14.25"/>
  <rect class="cls-3" x="85.73" y="126.14" width="32.5" height="94.82"/>
  <rect class="cls-3" x="74.48" y="155.83" width="11.25" height="35.45"/>
  <rect class="cls-3" x="189.23" y="126.14" width="32.5" height="94.82" transform="translate(410.96 347.11) rotate(-180)"/>
  <rect class="cls-3" x="221.73" y="155.83" width="11.25" height="35.45" transform="translate(454.71 347.11) rotate(-180)"/>
  <path class="cls-1" d="M143.46,164.03c-1.73-.57-3.55.82-4.4,2.44-1.52,2.89-.99,6.72,1.26,9.08"/>
  <path class="cls-1" d="M153.63,163.67c-.43-1.05-1.67-1.61-2.8-1.5-1.13.11-2.14.78-2.93,1.59-2.3,2.39-2.86,6.28-1.34,9.23"/>
  <path class="cls-1" d="M160.1,164.52c-.89-.39-1.8-.79-2.76-.98-.96-.19-1.99-.15-2.86.3-1,.52-1.67,1.51-2.11,2.54-.86,2.01-1,4.33-.39,6.43"/>
  <path class="cls-1" d="M164.56,184.76c3.87-4.05,5.97-9.74,5.65-15.34"/>
  <path class="cls-1" d="M671.56,401.54c40.62-67.08,68.47-141.86,81.63-219.17"/>
  <rect class="cls-3" x="680.02" y="166.43" width="145.5" height="14.25" transform="translate(1505.54 347.11) rotate(-180)"/>
  <rect class="cls-3" x="792.38" y="126.14" width="32.5" height="94.82" transform="translate(1617.26 347.11) rotate(-180)"/>
  <rect class="cls-3" x="688.88" y="126.14" width="32.5" height="94.82"/>
  <rect class="cls-3" x="677.63" y="155.83" width="11.25" height="35.45"/>
  <path class="cls-1" d="M767.16,164.03c1.73-.57,3.55.82,4.4,2.44,1.52,2.89.99,6.72-1.26,9.08"/>
  <path class="cls-1" d="M756.99,163.67c.43-1.05,1.67-1.61,2.8-1.5s2.14.78,2.93,1.59c2.3,2.39,2.86,6.28,1.34,9.23"/>
  <path class="cls-1" d="M750.51,164.52c.89-.39,1.8-.79,2.76-.98s1.99-.15,2.86.3c1,.52,1.67,1.51,2.11,2.54.86,2.01,1,4.33.39,6.43"/>
  <path class="cls-1" d="M746.05,184.76c-3.87-4.05-5.97-9.74-5.65-15.34"/>
  <circle class="cls-3" cx="388.3" cy="364.01" r="11.58"/>
  <circle class="cls-3" cx="522.32" cy="364.01" r="11.58"/>
  <path class="cls-6" d="M498.08,409.68c-5.34,8.78-13.55,15.69-22.96,19.78-5.77,2.5-11.98,3.94-18.27,4.11-6.74.18-14.08-1.35-20.9-4.2-9.94-4.14-18.76-11.09-22.98-19.69,28.87-.31,56.24.32,85.11,0Z"/>
  <path class="cls-4" d="M475.12,429.46c-5.77,2.5-11.98,3.94-18.27,4.11-6.74.18-14.08-1.35-20.9-4.2,1.59-9.37,9.76-16.5,19.58-16.5s18.03,7.17,19.59,16.59Z"/>
  <path class="cls-6" d="M611.66,341.62c-.95,4.49-1.27,9.24.09,13.63,1.36,4.39,4.63,8.36,9.03,9.67,4.4,1.31,9.8-.67,11.6-4.9,1.39-3.28.51-7.04-.61-10.43-2.46-7.45-5.95-14.61-10.39-21.09-3.18-4.65-4.32-1.68-6.17,2.37-1.57,3.44-2.77,7.05-3.55,10.75Z"/>
  <path class="cls-6" d="M580.83,466.84c-.95,4.49-1.27,9.24.09,13.63s4.63,8.36,9.03,9.67c4.4,1.31,9.8-.67,11.6-4.9,1.39-3.28.51-7.04-.61-10.43-2.46-7.45-5.95-14.61-10.39-21.09-3.18-4.65-4.32-1.68-6.17,2.37-1.57,3.44-2.77,7.05-3.55,10.75Z"/>
  <path class="cls-6" d="M315.46,332.56c.95,4.49,1.27,9.24-.09,13.63-1.36,4.39-4.63,8.36-9.03,9.67-4.4,1.31-9.8-.67-11.6-4.9-1.39-3.28-.51-7.04.61-10.43,2.46-7.45,5.95-14.61,10.39-21.09,3.18-4.65,4.32-1.68,6.17,2.37,1.57,3.44,2.77,7.05,3.55,10.75Z"/>
  <path class="cls-6" d="M281.31,442.58c.95,4.49,1.27,9.24-.09,13.63-1.36,4.39-4.63,8.36-9.03,9.67-4.4,1.31-9.8-.67-11.6-4.9-1.39-3.28-.51-7.04.61-10.43,2.46-7.45,5.95-14.61,10.39-21.09,3.18-4.65,4.32-1.68,6.17,2.37,1.57,3.44,2.77,7.05,3.55,10.75Z"/>
</svg>