<?xml version="1.0" encoding="UTF-8"?>
<svg id="Layer_1" data-name="Layer 1" xmlns="http://www.w3.org/2000/svg" viewBox="0 0 900 900">
  <defs>
    <style>
      .cls-1 {
        stroke: #161616;
        stroke-width: 3px;
      }

      .cls-1, .cls-2 {
        stroke-miterlimit: 10;
      }

      .cls-1, .cls-2, .cls-3 {
        fill: none;
        stroke-linecap: round;
      }

      .cls-2 {
        stroke: #b73232;
      }

      .cls-2, .cls-3 {
        stroke-width: 15px;
      }

      .cls-3 {
        stroke: #db7b7b;
        stroke-linejoin: round;
      }

      .cls-4 {
        fill: #161616;
      }

      .cls-4, .cls-5, .cls-6, .cls-7, .cls-8 {
        stroke-width: 0px;
      }

      .cls-5 {
        fill: #b73232;
      }

      .cls-6 {
        fill: #ffa1a1;
      }

      .cls-7 {
        fill: #fff;
      }

      .cls-8 {
        fill: #ffc639;
      }
    </style>
  </defs>
  <g>
    <path class="cls-6" d="M431.87,219.37c-15.85-15.05-37.9-23.36-59.74-22.51-21.84.85-43.18,10.84-57.82,27.07-15.81-4.36-32.44,1.63-47.74,7.54-9.77,3.77-19.55,7.55-29.32,11.32-14.15,5.46-28.78,11.24-39.26,22.2-10.48,10.96-15.52,28.69-7.51,41.57-3.1-.86-5.84.56-8.77,1.9-2.93,1.33-5.37,3.73-6.76,6.63-1.57,3.29-1.78,7.05-1.97,10.7-5.5.75-10.34,3.7-14.15,7.74s-6.47,9.05-8.46,14.23c-4.8,12.56-5.75,26.57-2.69,39.67,3.06,13.1,10.12,25.23,19.99,34.37-4.79.86-9.28,3.49-11.81,7.64-2.53,4.16-3.63,9.05-3.99,13.9-1.11,14.89,4.74,30.16,15.51,40.51,3.44,12.98,6.66,24.78,13.17,36.53,6.52,11.74,16.47,22.13,29.2,26.38,2.65,12.17,11.89,22.44,22.97,28.11,11.08,5.68,23.79,7.46,36.24,7.53,10.48.06,21.52-1.23,30.04-7.34,13.41,13.36,32.52,20.66,51.45,20.15,7.42-.2,14.76-1.58,21.99-3.26,7.63-1.78,15.18-3.92,22.61-6.39,9.94,8.17,23.58,12.17,36.44,11.58,3.62-.17,7.32-.74,10.49-2.51,3.38-1.88,5.99-5.11,7.13-8.81,4.91,5.29,11.52,8.59,18.62,9.94s14.61.38,21.13-2.73c25.32,11.05,57.3,5.57,76.56-14.24,14.45.75,29.54.35,43.99,1.1,7.42.38,14.9.76,22.24-.39,7.34-1.15,14.62-3.98,19.91-9.2,5.29-5.22,8.26-13.09,6.45-20.3,12.77-1.43,25.11-7.38,33.03-17.5,7.92-10.12,11.58-23.47,9.91-36.22,18.61-12.28,28.93-36.63,23.94-58.37-1.56-6.78-4.53-13.43-9.63-18.16,8.15-5.96,13.43-16.79,11.15-26.63-1.21-5.22-4.04-10.29-3.28-15.59,1.26-8.78,2.67-18.43.18-26.95-2.92-9.99-11.12-18.28-21.08-21.31.95-7.46-1.27-14.96-5.31-21.3-4.05-6.34-10.37-11.2-17.54-13.49,1.38-6.78-4.2-13.49-8.79-18.68-16.61-18.77-40.61-30.81-65.58-32.91-4.88-7.51-12.54-12.98-21.02-15.85-8.49-2.86-17.94-2.78-26.37.24-17.83-17.99-44.48-27.12-69.54-23.45-10.33,1.51-20.25,4.99-30.1,8.45-8.14,2.86-17.94,4.22-26.09,7.08Z"/>
    <path class="cls-3" d="M431.87,219.37c-15.85-15.05-37.9-23.36-59.74-22.51-21.84.85-43.18,10.84-57.82,27.07-15.81-4.36-32.44,1.63-47.74,7.54-9.77,3.77-19.55,7.55-29.32,11.32-14.15,5.46-28.78,11.24-39.26,22.2-10.48,10.96-15.52,28.69-7.51,41.57-3.1-.86-5.84.56-8.77,1.9-2.93,1.33-5.37,3.73-6.76,6.63-1.57,3.29-1.78,7.05-1.97,10.7-5.5.75-10.34,3.7-14.15,7.74s-6.47,9.05-8.46,14.23c-4.8,12.56-5.75,26.57-2.69,39.67,3.06,13.1,10.12,25.23,19.99,34.37-4.79.86-9.28,3.49-11.81,7.64-2.53,4.16-3.63,9.05-3.99,13.9-1.11,14.89,4.74,30.16,15.51,40.51,3.44,12.98,6.66,24.78,13.17,36.53,6.52,11.74,16.47,22.13,29.2,26.38,2.65,12.17,11.89,22.44,22.97,28.11,11.08,5.68,23.79,7.46,36.24,7.53,10.48.06,21.52-1.23,30.04-7.34,13.41,13.36,32.52,20.66,51.45,20.15,7.42-.2,14.76-1.58,21.99-3.26,7.63-1.78,15.18-3.92,22.61-6.39,9.94,8.17,23.58,12.17,36.44,11.58,3.62-.17,7.32-.74,10.49-2.51,3.38-1.88,5.99-5.11,7.13-8.81,4.91,5.29,11.52,8.59,18.62,9.94s14.61.38,21.13-2.73c25.32,11.05,57.3,5.57,76.56-14.24,14.45.75,29.54.35,43.99,1.1,7.42.38,14.9.76,22.24-.39,7.34-1.15,14.62-3.98,19.91-9.2,5.29-5.22,8.26-13.09,6.45-20.3,12.77-1.43,25.11-7.38,33.03-17.5,7.92-10.12,11.58-23.47,9.91-36.22,18.61-12.28,28.93-36.63,23.94-58.37-1.56-6.78-4.53-13.43-9.63-18.16,8.15-5.96,13.43-16.79,11.15-26.63-1.21-5.22-4.04-10.29-3.28-15.59,1.26-8.78,2.67-18.43.18-26.95-2.92-9.99-11.12-18.28-21.08-21.31.95-7.46-1.27-14.96-5.31-21.3-4.05-6.34-10.37-11.2-17.54-13.49,1.38-6.78-4.2-13.49-8.79-18.68-16.61-18.77-40.61-30.81-65.58-32.91-4.88-7.51-12.54-12.98-21.02-15.85-8.49-2.86-17.94-2.78-26.37.24-17.83-17.99-44.48-27.12-69.54-23.45-10.33,1.51-20.25,4.99-30.1,8.45-8.14,2.86-17.94,4.22-26.09,7.08Z"/>
    <path class="cls-3" d="M188.5,303.11c5.47,7.76,11.42,15.47,19.46,20.52,9.09,5.71,20.53,7.53,30.94,4.91,10.41-2.62,19.63-9.64,24.93-18.97"/>
    <path class="cls-3" d="M318.3,226.59c-5.72,12.65-11.55,26.74-7.46,40,2.79,9.04,9.83,16.14,17.34,21.9,9.45,7.25,20.37,13.12,32.21,14.42s24.69-2.62,32.06-11.97c8.88-11.26,7.38-29.32-3.23-38.97"/>
    <path class="cls-3" d="M554.04,225.05c1.93,17.37-3.23,35.42-14.04,49.14-6.43,8.15-15.06,14.93-25.16,17.34-10.09,2.42-21.68-.15-28.57-7.91-6.89-7.76-7.63-20.84-.43-28.32"/>
    <path class="cls-3" d="M428.96,219.36c14.38,21.83,23.05,47.38,24.91,73.45.75,10.53.34,21.49-4.16,31.04s-13.84,17.41-24.39,17.52"/>
    <path class="cls-3" d="M168.39,420.28c17.57,8.39,38.67,9.03,56.71,1.71,18.04-7.32,32.73-22.49,39.48-40.75"/>
    <path class="cls-3" d="M168.98,328.5c5.92.85,11.52,3.85,15.49,8.32,5.14,5.78,7.4,13.67,7.75,21.39.35,7.73-1.05,15.41-2.45,23.02"/>
    <path class="cls-3" d="M166.71,486.22c25.68,1.62,51.86-7.85,70.56-25.52"/>
    <path class="cls-3" d="M343.55,448.84c-3.49-9.44-14.71-14.66-24.63-12.96-9.92,1.69-18.2,9.17-22.79,18.13-2.21,4.32-3.7,9.34-2.42,14.02,1.28,4.68,6.14,8.6,10.85,7.43"/>
    <path class="cls-3" d="M295.67,575.93c9.33-1.35,15.32-10.31,20.11-18.43,5.89-9.98,11.78-19.95,17.67-29.93,4.25-7.19,8.55-14.52,10.49-22.64,1.94-8.12,1.2-17.31-3.93-23.9"/>
    <path class="cls-3" d="M213.79,547.62c2.56-6.23,5.12-12.45,7.68-18.68,1.51-3.68,3.14-7.52,6.2-10.07,5.18-4.32,13.04-3.65,19.1-.7,6.06,2.95,10.97,7.78,16.48,11.65,5.51,3.87,12.28,6.9,18.86,5.44"/>
    <path class="cls-3" d="M398.13,585.45c.51-17.87,2.39-35.7,5.62-53.29.83-4.49,1.77-9.06,4.02-13.03,2.25-3.98,6.05-7.33,10.57-7.94"/>
    <path class="cls-3" d="M431.7,547.36c4.32-1.17,9.62-2.08,12.69,1.17,2.09,2.22,2.28,5.57,2.34,8.61.2,9.3.41,18.6.61,27.9"/>
    <path class="cls-3" d="M499.33,593.08c-5.87-3.63-11.6-8.05-14.64-14.25-3.04-6.2-2.63-14.53,2.55-19.09,5.7-5.01,14.3-3.78,21.88-4.06,8.79-.32,17.47-3.13,24.78-8.02"/>
    <path class="cls-3" d="M471.27,509.45c15.52-7.39,33.45-10.2,50.19-6.34,16.74,3.87,32.06,14.76,39.86,30.08s7.33,34.9-2.43,49.05"/>
    <path class="cls-3" d="M658.15,548.08c-18.23-8.28-39.05-7.9-59.06-7.37"/>
    <path class="cls-3" d="M701.95,494.59c-23.82,4.65-49.91-5.59-64.21-25.21-2.84-3.9-5.28-8.23-6.09-12.99s.25-10.01,3.61-13.47"/>
    <path class="cls-3" d="M550.61,481.31c2.29-6.12,4.63-12.35,8.6-17.54,3.97-5.19,9.88-9.3,16.42-9.51,5.65-.18,11.07,2.55,15.38,6.2,4.89,4.14,8.79,9.76,9.75,16.1.96,6.34-1.45,13.36-6.8,16.89"/>
    <path class="cls-3" d="M580.46,419.36c-.86-7.94-1.72-15.95-.94-23.89.78-7.95,3.34-15.93,8.58-21.96s13.46-9.78,21.32-8.39"/>
    <path class="cls-3" d="M715.4,423.52c-3.16-1.41-6.32-2.81-9.49-4.22-4.38-1.95-9.17-3.94-13.83-2.81-3.99.97-7.16,4.15-9.09,7.78s-2.79,7.72-3.63,11.74c-1.08,5.13-2.15,10.26-3.23,15.4"/>
    <path class="cls-3" d="M698.2,332.22c-9.25,14.37-18.49,28.74-27.74,43.11-3.99,6.2-8.15,12.58-14.25,16.73-6.1,4.15-14.72,5.52-20.77,1.3"/>
    <path class="cls-3" d="M675.52,296.32c-11.78,3.55-23.57,7.1-35.35,10.64-4.16,1.25-8.37,2.53-12.05,4.84-3.68,2.31-6.82,5.81-7.71,10.06-1.34,6.38,2.49,12.57,6.15,17.96,3.6,5.31,7.21,10.62,10.81,15.93"/>
    <path class="cls-3" d="M603.96,245.34c-.98,2.23-1.96,4.46-2.94,6.68-1.4,3.19-2.83,6.55-2.52,10.02.32,3.61,2.53,6.83,5.3,9.16s6.1,3.88,9.38,5.41"/>
    <path class="cls-3" d="M550.73,345.82c3.16-3.78,4.13-9.26,2.46-13.89-1.32-3.69-4.19-6.91-4.32-10.83-.14-4.18,2.9-7.76,6.05-10.51,5.78-5.04,12.6-8.87,19.9-11.18"/>
  </g>
  <circle class="cls-4" cx="371.04" cy="373.83" r="11.58"/>
  <circle class="cls-4" cx="505.06" cy="373.83" r="11.58"/>
  <path class="cls-5" d="M480.22,731.15h33.25l7.5,42.25s17.88-16,41.88-14.12,23.62,35.25,23.62,35.25h-106.25v-63.38Z"/>
  <path class="cls-5" d="M406.76,731.15h-33.25s-7.5,42.25-7.5,42.25c0,0-17.87-16-41.87-14.13-24,1.87-23.63,35.25-23.63,35.25h106.25s0-63.37,0-63.37Z"/>
  <path class="cls-7" d="M485.49,413.57c0,26.2-21.24,47.44-47.44,47.44s-47.44-21.24-47.44-47.44c0,0,10.5,10.81,47.44,10.81,34.56,0,47.44-10.81,47.44-10.81Z"/>
  <path class="cls-1" d="M402.47,434.2s9.99,6.19,35.58,6.19c23.95,0,35.67-5.41,35.67-5.41"/>
  <path class="cls-8" d="M797.28,174.61c7.94-29.18-9.28-59.26-38.45-67.2-29.18-7.94-59.26,9.28-67.2,38.45-4.74,17.43-.5,35.19,9.9,48.35l-3.65,39.11,49.69,13.52,16.67-35.56c15.64-6.08,28.29-19.24,33.04-36.67Z"/>
  <path class="cls-4" d="M691.79,239.39h51.5v19.06c0,11.28-9.16,20.44-20.44,20.44h-10.63c-11.28,0-20.44-9.16-20.44-20.44v-19.06h0Z" transform="translate(93.21 -179.3) rotate(15.22)"/>
  <path class="cls-7" d="M773.74,158.09c-1.12-3.16-4.53-5.57-8.69-6.15-3.64-.5-6.8.6-8.46,2.95-1,1.41-3.1,6.84-5.6,13.88-3.05-.94-6.04-1.97-8.58-2.92v-.02s-.07-.01-.11-.02c-.03-.01-.07-.03-.1-.04v.02c-2.67-.47-5.78-1.1-8.88-1.83,1.41-7.33,2.35-13.08,2.21-14.8-.24-2.86-2.4-5.41-5.8-6.82-3.88-1.61-8.05-1.26-10.61.89-5.04,4.24-6.41,11.63-3.01,16.14,1.79,2.37,8.64,4.54,14.89,6.09-2.7,13.7-6.94,32.79-9.69,44.74l1.95.45c.36-1.55,6.18-26.92,9.68-44.72,4.06.95,7.58,1.6,8.84,1.83,1.2.45,4.56,1.66,8.55,2.9-6.01,17.12-13.84,41.95-14.32,43.46l1.91.6c3.69-11.7,9.7-30.3,14.32-43.48,6.17,1.82,13.18,3.43,15.92,2.29,5.22-2.16,7.78-9.23,5.58-15.44ZM717.7,158.16c-2.74-3.62-1.48-9.89,2.7-13.4,1.68-1.42,4.45-1.79,7.19-1.05.46.12.92.28,1.37.47,2.69,1.12,4.4,3.04,4.57,5.14.13,1.54-.76,6.95-2.15,14.17-6.4-1.6-12.34-3.56-13.68-5.33ZM767.39,171.68c-2.05.85-8.17-.47-14.49-2.33,2.45-6.93,4.43-12.04,5.33-13.3,1.22-1.72,3.67-2.52,6.55-2.12,3.38.46,6.22,2.41,7.08,4.83,1.82,5.15-.27,11.18-4.46,12.92Z"/>
  <path class="cls-5" d="M174.85,443.46c-29.74-42.03-53.35-87.91-70.26-136.5,1.72-.57,3.15-1.73,4.06-3.24.3-.21.59-.44.86-.7,4.49-4.27,7.94-9.63,9.98-15.48,1.36-3.91-.71-8.19-4.62-9.55-2.65-.92-5.46-.27-7.42,1.46l-.92-48.27c-.08-4.14-3.52-7.45-7.64-7.36-4.14.08-7.43,3.5-7.36,7.64l.85,44.58c-2.31-.94-4.67-1.46-7.04-1.51-4.45-.1-8.7,1.4-11.74,4.12-3.71,3.32-5.25,8.23-4.02,12.8.05.2.12.39.19.58-1.1,3.23-.72,6.93,1.17,10.54,1.96,3.74,5.13,7.03,9.16,9.52,1.23.76,2.59,1.12,3.93,1.12,2.24,0,4.42-1.01,5.88-2.85,17.41,50.48,41.83,98.13,72.7,141.74,1.46,2.07,3.78,3.17,6.13,3.17,1.5,0,3.01-.45,4.33-1.38,3.38-2.39,4.18-7.07,1.79-10.45Z"/>
  <line class="cls-2" x1="389.16" y1="743.09" x2="415.03" y2="602.14"/>
  <line class="cls-2" x1="499.67" y1="743.09" x2="473.8" y2="602.14"/>
  <path class="cls-5" d="M827.46,361.99c-3.27-4.52-8.65-6.97-13.9-6.85-3.24-2.58-7.21-3.64-11.07-2.75-2.54.58-4.76,1.95-6.5,3.9-5.26.43-9.63,3.44-11.29,8.02-.12.34-.21.67-.3,1-1.57-.85-3.44-1.15-5.31-.7-4.03.96-6.51,5.01-5.55,9.04,2.76,11.54,12.9,20.78,24.65,22.46.32.05.65.06.97.07-1.31,4.94-3.85,10.31-7.64,16.09-21.81,33.28-61.57,53.58-101.35,51.72-4.09-.21-7.65,3-7.84,7.14-.19,4.14,3,7.65,7.14,7.84,1.91.09,3.82.13,5.73.13,43,0,85.25-22.58,108.87-58.61,5.94-9.07,9.5-17.7,10.68-25.81.77-.15,1.54-.4,2.26-.81,5.55-3.1,9.68-7.35,11.94-12.29,2.98-6.52,2.39-14.21-1.5-19.59Z"/>
</svg>